<?xml version="1.0" encoding="UTF-8"?>
<svg id="Layer_2" data-name="Layer 2" xmlns="http://www.w3.org/2000/svg" xmlns:xlink="http://www.w3.org/1999/xlink" viewBox="0 0 164.9 27">
  <defs>
    <style>
      .cls-1 {
        fill: #fff;
      }

      .cls-2 {
        clip-path: url(#clippath);
        fill: none;
      }
    </style>
    <clipPath id="clippath">
      <rect class="cls-1" width="164.9" height="27"/>
    </clipPath>
  </defs>
  <g id="Layer_1-2" data-name="Layer 1-2">
    <g>
      <rect class="cls-1" width="164.9" height="27"/>
      <g class="cls-2">
        <g>
          <path class="cls-1" d="m7,6.1c-3.3,2.7-4.7,8.1-2,12.5,2.8,4.6,8.3,5.6,11.7,4.1-3.2-5.5-6.4-11-9.7-16.6m3.1-1.8c3.3,5.5,6.5,11.1,9.8,16.6,3.5-2.9,4.7-8.5,1.8-12.9-3.1-4.4-8.4-5.1-11.6-3.7m11.6,19.8c.2.4.4.7.6,1.1-1,.6-2,1.2-3.1,1.8-.2-.3-.4-.5-.5-.8-.1-.2-.2-.3-.5-.2-1.7.7-3.5,1-5.3.9-6.2-.1-11.6-4.7-12.6-10.9C-.6,10.9,1,6.7,4.9,3.2c.2-.2.2-.4,0-.6-.1-.3-.2-.5-.4-.8,1-.6,2-1.2,3.1-1.8.2.3.4.6.5.8.1.3.2.3.4.2C10.1.4,11.8.1,13.5.1c6.5.1,11.8,4.7,13,10.7,1,5.2-.6,9.6-4.6,13.1,0,0,0,.1-.2.2"/>
          <path class="cls-1" d="m89.8,27h-3.5c-.3,0-.5-.1-.7-.4-1.9-3.2-3.8-6.4-5.6-9.6-1.9-3.2-3.8-6.4-5.7-9.6-.1-.1-.1-.2-.2-.3v19.9h-3.6V.1h3.4c.3,0,.4.1.5.3,2.4,4.1,4.8,8.1,7.2,12.2,1.5,2.5,2.9,5,4.4,7.4.1.1.1.2.2.4v-3.8c0-.2-.1-.5-.2-.7-3-5.1-6-10.2-9.1-15.4-.1-.1-.2-.3-.3-.5h3.9c.2,0,.4.1.5.3,1.6,2.8,3.2,5.5,4.9,8.3,0,.2.1.3.3.4V.2h3.6v26.8h0Z"/>
          <path class="cls-1" d="m151.1,3.7c.1.1.1.2.1.3,1.8,3.1,3.7,6.2,5.5,9.3.1.2.3.3.5.2,2.4-.7,3.9-3.2,3.5-5.7-.4-2.2-2.4-3.9-4.5-4-1.6-.1-3.3,0-4.9,0q-.1-.1-.2-.1m7.7,13c2,3.4,4.1,6.8,6.1,10.2h-3.8c-.3,0-.4-.1-.5-.3-1.8-3-3.6-6-5.4-9.1-.2-.3-.3-.4-.7-.4h-5.3v9.7h-3.6v-13.1h7.2c-2.7-4.6-5.4-9-8.1-13.5h11.2c4.3,0,7.9,3.4,8.4,7.6.4,3.9-1.8,7.5-5.2,8.9,0-.1-.1,0-.3,0"/>
          <path class="cls-1" d="m143.2,27h-3.6c-.1,0-.2-.2-.3-.3-.8-2.1-1.5-4.2-2.3-6.4-.6-1.6-1.1-3.1-1.7-4.7,0-.1-.1-.2-.2-.4-.2.6-.4,1.1-.6,1.6-1.2,3.3-2.3,6.6-3.5,9.9-.1.3-.2.4-.5.4h-3.4c.1-.2.1-.5.2-.7,1.9-5.4,3.8-10.8,5.7-16.1.1-.3.1-.5,0-.8-.3-.9-.7-1.8-1-2.9-.2.6-.4,1.1-.6,1.5-2.2,6.2-4.4,12.3-6.6,18.5-.1.3-.2.4-.6.4h-3.4c.3-.8.6-1.6.8-2.3,2.9-8,5.7-16,8.6-24.1.1-.3.2-.4.5-.4h2.4c.3,0,.4.1.5.4,1.9,5.4,3.9,10.8,5.8,16.2,1.2,3.3,2.4,6.6,3.5,9.9.2.1.3.2.3.3"/>
          <path class="cls-1" d="m50.6,27V.2h17.1v3.5h-13.5v8.1h13.5v3.6h-13.1c-.3,0-.5.2-.5.5v7.5h13.5v3.6h-17Z"/>
          <path class="cls-1" d="m101.8.1h17.1v3.6h-13.5v8.1h13.5v3.6h-13c-.3,0-.5.2-.5.5v7.5h13.5v3.6h-17.1V.1Z"/>
          <path class="cls-1" d="m34.8,3.7c0,.1.1.2.1.3,1.8,3.1,3.6,6.2,5.5,9.3.1.2.3.2.5.2,2.3-.6,3.9-3,3.7-5.3-.3-2.5-2.4-4.4-4.9-4.5h-4.5c-.2,0-.3,0-.4,0m-1.9,13.5v9.8h-3.6v-13.3h7.1c-2.7-4.5-5.3-9-7.9-13.5h11.2c4.3,0,7.9,3.3,8.4,7.6.5,4.7-2.7,8.8-7.3,9.5-.4,0-.7.1-1.1.1h-6.8v-.2Z"/>
        </g>
      </g>
    </g>
  </g>
</svg>