<?xml version="1.0" encoding="utf-8"?>
<!-- Generator: Adobe Illustrator 27.6.1, SVG Export Plug-In . SVG Version: 6.00 Build 0)  -->
<svg version="1.1" id="Layer_2_00000006707482831031159260000016645933165691011503_"
	 xmlns="http://www.w3.org/2000/svg" xmlns:xlink="http://www.w3.org/1999/xlink" x="0px" y="0px" viewBox="0 0 28 166"
	 style="enable-background:new 0 0 28 166;" xml:space="preserve">
<style type="text/css">
	.st0{clip-path:url(#SVGID_00000029023463003760201560000012478443398903551112_);}
	.st1{fill:#6463F4;}
</style>
<g id="Layer_1-2">
	<g>
		<defs>
			<rect id="SVGID_1_" x="0.5" y="0.5" width="27" height="164.9"/>
		</defs>
		<clipPath id="SVGID_00000108277649468017604450000006515991075201547430_">
			<use xlink:href="#SVGID_1_"  style="overflow:visible;"/>
		</clipPath>
		<g style="clip-path:url(#SVGID_00000108277649468017604450000006515991075201547430_);">
			<path class="st1" d="M6.6,158.5c2.7,3.3,8.1,4.7,12.5,2c4.6-2.8,5.6-8.3,4.1-11.8C17.7,151.9,12.1,155.2,6.6,158.5 M4.8,155.4
				c5.5-3.3,11.1-6.5,16.6-9.8c-2.9-3.5-8.5-4.7-12.9-1.8C4.1,146.8,3.4,152.2,4.8,155.4 M24.5,143.7c0.4-0.2,0.7-0.4,1.1-0.6
				c0.6,1,1.2,2,1.8,3.1c-0.3,0.2-0.5,0.3-0.8,0.5c-0.2,0.1-0.3,0.2-0.2,0.5c0.7,1.7,1,3.5,0.9,5.3c-0.2,6.3-4.8,11.7-11,12.8
				c-5.1,0.9-9.3-0.7-12.8-4.6c-0.2-0.2-0.4-0.3-0.6-0.1c-0.2,0.2-0.5,0.3-0.8,0.4c-0.6-1-1.2-2-1.8-3.1c0.3-0.2,0.6-0.4,0.8-0.5
				c0.2-0.1,0.2-0.2,0.1-0.4c-0.6-1.6-0.9-3.3-0.9-5c0.1-6.5,4.7-11.8,10.7-13c5.2-1,9.6,0.6,13.1,4.6
				C24.4,143.6,24.5,143.6,24.5,143.7"/>
			<path class="st1" d="M27.5,75.7v0.4c0,1,0,2.1,0,3.1c0,0.3-0.1,0.5-0.4,0.7c-3.2,1.9-6.4,3.8-9.6,5.6c-3.2,1.9-6.4,3.8-9.6,5.7
				c-0.1,0.1-0.2,0.1-0.3,0.2h19.9V95H0.6v-1.7c0-0.6,0-1.1,0-1.7c0-0.3,0.1-0.4,0.3-0.5C5,88.7,9,86.3,13.1,83.9
				c2.5-1.5,5-2.9,7.4-4.4c0.1-0.1,0.2-0.1,0.4-0.2c-0.2,0-0.3,0-0.4,0c-1.1,0-2.3,0-3.4,0c-0.2,0-0.5,0.1-0.7,0.2
				c-5.1,3-10.2,6-15.4,9.1c-0.1,0.1-0.3,0.2-0.5,0.3c0-0.5,0-0.9,0-1.3c0-0.8,0-1.7,0-2.6c0-0.2,0.1-0.4,0.3-0.5
				c2.8-1.6,5.5-3.2,8.3-4.9c0.1-0.1,0.2-0.1,0.3-0.3H0.6v-3.6L27.5,75.7L27.5,75.7z"/>
			<path class="st1" d="M4.2,14.4c0.1-0.1,0.2-0.1,0.3-0.1c3.1-1.8,6.2-3.7,9.3-5.5C14,8.6,14,8.4,13.9,8.2
				c-0.7-2.4-3.2-3.9-5.7-3.5C6,5.2,4.3,7.1,4.2,9.3c-0.1,1.6,0,3.3,0,4.9C4.2,14.2,4.2,14.3,4.2,14.4 M17.2,6.6
				c3.4-2,6.8-4.1,10.2-6.1c0,0.2,0,0.3,0,0.4c0,1.1,0,2.3,0,3.4c0,0.3-0.1,0.4-0.3,0.5c-3,1.8-6,3.6-9.1,5.4
				c-0.3,0.2-0.4,0.3-0.4,0.7c0,1.6,0,3.2,0,4.9v0.4h9.7v3.6H14.1v-7.2c-4.6,2.7-9,5.4-13.5,8.1c0-0.2,0-0.3,0-0.4
				c0-3.6,0-7.2,0-10.8c0-4.3,3.4-7.9,7.6-8.4c3.9-0.4,7.5,1.8,8.9,5.2C17.1,6.4,17.1,6.5,17.2,6.6"/>
			<path class="st1" d="M27.5,22.2c0,1.2,0,2.4,0,3.6c0,0.1-0.2,0.2-0.3,0.3c-2.1,0.8-4.2,1.5-6.4,2.3c-1.6,0.6-3.1,1.1-4.7,1.7
				c-0.1,0-0.2,0.1-0.4,0.2c0.6,0.2,1.1,0.4,1.6,0.6c3.3,1.2,6.6,2.3,9.9,3.5c0.3,0.1,0.4,0.2,0.4,0.5c0,1.1,0,2.2,0,3.4
				c-0.2-0.1-0.5-0.1-0.7-0.2c-5.4-1.9-10.8-3.8-16.1-5.7c-0.3-0.1-0.5-0.1-0.8,0C9,32.6,8.1,33,7,33.3c0.6,0.2,1.1,0.4,1.5,0.6
				c6.2,2.2,12.3,4.4,18.5,6.6c0.3,0.1,0.4,0.2,0.4,0.6c0,1.1,0,2.2,0,3.4c-0.8-0.3-1.6-0.6-2.3-0.8c-8-2.9-16-5.7-24.1-8.6
				c-0.3-0.1-0.4-0.2-0.4-0.5c0-0.8,0-1.6,0-2.4c0-0.3,0.1-0.4,0.4-0.5c5.4-1.9,10.8-3.9,16.2-5.8c3.3-1.2,6.6-2.4,9.9-3.5
				C27.3,22.3,27.4,22.3,27.5,22.2"/>
			<path class="st1" d="M27.4,114.9H0.6V97.8h3.5v13.5h8.1V97.8h3.6c0,0.2,0,0.3,0,0.5c0,4.2,0,8.4,0,12.6c0,0.3,0.2,0.5,0.5,0.5
				c2.4,0,4.7,0,7.1,0c0.1,0,0.3,0,0.4,0V97.8h3.6L27.4,114.9L27.4,114.9z"/>
			<path class="st1" d="M0.6,63.7V46.6h3.6v13.5h8.1V46.6h3.6v13c0,0.3,0.2,0.5,0.5,0.5c2.4,0,4.7,0,7,0h0.5V46.6h3.5v17.1
				C27.4,63.7,0.6,63.7,0.6,63.7z"/>
			<path class="st1" d="M4.2,130.7c0.1-0.1,0.2-0.1,0.3-0.1c3.1-1.8,6.2-3.6,9.3-5.5c0.2-0.1,0.2-0.3,0.2-0.5
				c-0.6-2.3-3-3.9-5.3-3.7c-2.5,0.3-4.4,2.4-4.5,4.9c0,1.5,0,3,0,4.5C4.2,130.5,4.2,130.6,4.2,130.7 M17.7,132.6h9.7v3.6H14.1v-7.1
				c-4.5,2.7-9,5.3-13.5,7.9c0-0.1,0-0.2,0-0.3c0-3.6,0-7.3,0-10.9c0-4.3,3.3-7.9,7.6-8.4c4.7-0.5,8.8,2.7,9.5,7.3
				c0,0.4,0.1,0.7,0.1,1.1c0,2.1,0,4.1,0,6.2V132.6z"/>
		</g>
	</g>
</g>
</svg>
