<?xml version="1.0" encoding="UTF-8"?>
<svg id="Layer_2" data-name="Layer 2" xmlns="http://www.w3.org/2000/svg" xmlns:xlink="http://www.w3.org/1999/xlink" viewBox="0 0 164.94 27">
  <defs>
    <style>
      .cls-1 {
        clip-path: url(#clippath);
      }

      .cls-2 {
        fill: none;
      }

      .cls-2, .cls-3 {
        stroke-width: 0px;
      }

      .cls-3 {
        fill: #fff;
      }
    </style>
    <clipPath id="clippath">
      <rect class="cls-2" width="164.94" height="27"/>
    </clipPath>
  </defs>
  <g id="Layer_1-2" data-name="Layer 1">
    <g class="cls-1">
      <path class="cls-3" d="m7,6.1c-3.31,2.69-4.7,8.08-1.97,12.52,2.85,4.64,8.28,5.55,11.75,4.11-3.25-5.54-6.51-11.07-9.78-16.63m3.1-1.82c3.26,5.54,6.52,11.08,9.78,16.63,3.5-2.92,4.69-8.47,1.75-12.87-2.98-4.46-8.32-5.14-11.53-3.76m11.65,19.79c.22.38.42.73.64,1.12-1.03.61-2.04,1.2-3.08,1.81-.17-.29-.35-.55-.49-.82-.12-.24-.25-.26-.48-.16-1.71.68-3.49.98-5.32.92-6.27-.18-11.69-4.79-12.76-10.99C-.64,10.87.94,6.61,4.82,3.2c.25-.22.31-.37.11-.64-.16-.22-.28-.47-.44-.75C5.51,1.21,6.52.62,7.57,0c.17.29.36.55.5.84.11.22.23.24.45.15C10.14.35,11.82.04,13.56.06c6.48.07,11.82,4.66,13.01,10.66,1.04,5.23-.57,9.63-4.58,13.15-.07.06-.14.12-.25.21"/>
      <path class="cls-3" d="m89.75,26.98h-.41c-1.04,0-2.07-.01-3.11,0-.32,0-.49-.09-.65-.37-1.87-3.21-3.76-6.41-5.64-9.61-1.89-3.21-3.78-6.43-5.67-9.64-.05-.09-.11-.18-.25-.27v19.86h-3.58V.13h1.7c.57,0,1.13.02,1.7,0,.27-.01.4.09.53.31,2.38,4.07,4.77,8.13,7.16,12.2,1.46,2.48,2.91,4.96,4.37,7.43.06.1.13.19.25.37.01-.2.03-.32.03-.43,0-1.13.01-2.26,0-3.4,0-.23-.07-.48-.18-.67-3.01-5.12-6.03-10.24-9.05-15.36-.08-.13-.15-.26-.26-.46.47,0,.87,0,1.27,0,.85,0,1.71,0,2.56-.01.24,0,.38.07.51.28,1.61,2.76,3.24,5.52,4.86,8.27.06.11.14.22.28.31V.15h3.58v26.83Z"/>
      <path class="cls-3" d="m151.11,3.74c.05.1.08.19.13.27,1.84,3.09,3.68,6.17,5.51,9.27.14.24.28.26.52.18,2.43-.73,3.94-3.22,3.46-5.72-.42-2.18-2.35-3.93-4.51-4.01-1.65-.06-3.3-.01-4.94-.02-.04,0-.09.01-.16.03m7.72,13c2.04,3.41,4.06,6.8,6.11,10.22-.17,0-.29.02-.4.02-1.14,0-2.29,0-3.43,0-.26,0-.41-.07-.54-.3-1.79-3.02-3.59-6.04-5.38-9.06-.16-.28-.34-.4-.68-.4-1.62.02-3.25,0-4.88,0h-.45v9.71h-3.57v-13.28h7.21c-2.71-4.55-5.37-9.01-8.06-13.53.16,0,.27-.02.38-.02,3.61,0,7.22-.01,10.84,0,4.27.02,7.93,3.37,8.39,7.6.42,3.9-1.82,7.46-5.22,8.87-.09.04-.17.08-.3.15"/>
      <path class="cls-3" d="m143.25,26.98c-1.24,0-2.45,0-3.65-.01-.1,0-.24-.17-.28-.29-.76-2.11-1.51-4.23-2.26-6.35-.55-1.56-1.11-3.12-1.67-4.68-.04-.11-.08-.22-.17-.42-.21.58-.4,1.07-.57,1.56-1.16,3.28-2.33,6.57-3.49,9.85-.09.27-.21.37-.51.36-1.12-.02-2.24,0-3.41,0,.08-.24.14-.46.21-.66,1.91-5.38,3.81-10.75,5.73-16.13.1-.27.1-.5,0-.76-.34-.92-.66-1.85-1.03-2.88-.21.58-.38,1.06-.55,1.54-2.19,6.17-4.39,12.34-6.57,18.51-.1.29-.23.41-.56.4-1.12-.02-2.24,0-3.41,0,.28-.8.55-1.57.82-2.33,2.86-8.02,5.71-16.05,8.56-24.07.1-.28.21-.39.52-.38.79.03,1.59.02,2.38,0,.28,0,.39.09.48.35,1.92,5.41,3.85,10.82,5.77,16.23,1.17,3.29,2.35,6.59,3.52,9.88.03.09.06.18.1.33"/>
      <path class="cls-3" d="m50.57,26.97V.15h17.07v3.55h-13.48v8.15h13.48v3.57c-.16,0-.31.02-.46.02-4.19,0-8.38,0-12.57,0q-.48,0-.48.47c0,2.36,0,4.72,0,7.08,0,.13,0,.26.02.43h13.5v3.56h-17.08Z"/>
      <path class="cls-3" d="m101.81.14h17.05v3.56h-13.48v8.15h13.49v3.59h-13.04q-.47,0-.47.47c0,2.35,0,4.7,0,7.05v.45h13.52v3.55h-17.07V.14Z"/>
      <path class="cls-3" d="m34.76,3.73c.05.11.08.2.13.28,1.82,3.1,3.64,6.2,5.46,9.3.13.23.27.24.49.18,2.31-.62,3.93-2.98,3.65-5.31-.31-2.53-2.39-4.45-4.86-4.47-1.52-.01-3.03,0-4.55,0-.09,0-.19.01-.31.02m-1.92,13.51v9.72h-3.57v-13.29h7.12c-2.67-4.54-5.29-9-7.93-13.51.14-.01.24-.03.33-.03,3.62,0,7.25-.02,10.87,0,4.26.02,7.87,3.31,8.36,7.58.53,4.65-2.69,8.8-7.34,9.46-.37.05-.74.07-1.11.07-2.07,0-4.14,0-6.21,0h-.52Z"/>
    </g>
  </g>
</svg>