<?xml version="1.0" encoding="utf-8"?>
<!-- Generator: Adobe Illustrator 27.6.1, SVG Export Plug-In . SVG Version: 6.00 Build 0)  -->
<svg version="1.1" id="Layer_2_00000137829156235283247870000009346724353370889919_"
	 xmlns="http://www.w3.org/2000/svg" xmlns:xlink="http://www.w3.org/1999/xlink" x="0px" y="0px" viewBox="0 0 164.9 27"
	 style="enable-background:new 0 0 164.9 27;" xml:space="preserve">
<style type="text/css">
	.st0{clip-path:url(#SVGID_00000065792438235594496500000006031963286700290726_);}
	.st1{fill:#EBF188;}
</style>
<g id="Layer_1-2">
	<g>
		<defs>
			<rect id="SVGID_1_" width="164.9" height="27"/>
		</defs>
		<clipPath id="SVGID_00000144322716112184815950000008325545074652746404_">
			<use xlink:href="#SVGID_1_"  style="overflow:visible;"/>
		</clipPath>
		<g style="clip-path:url(#SVGID_00000144322716112184815950000008325545074652746404_);">
			<path class="st1" d="M7,6.1c-3.3,2.7-4.7,8.1-2,12.5c2.8,4.6,8.3,5.6,11.7,4.1C13.5,17.2,10.3,11.7,7,6.1 M10.1,4.3
				c3.3,5.5,6.5,11.1,9.8,16.6c3.5-2.9,4.7-8.5,1.8-12.9C18.6,3.6,13.3,2.9,10.1,4.3 M21.7,24.1c0.2,0.4,0.4,0.7,0.6,1.1
				c-1,0.6-2,1.2-3.1,1.8c-0.2-0.3-0.4-0.5-0.5-0.8c-0.1-0.2-0.2-0.3-0.5-0.2c-1.7,0.7-3.5,1-5.3,0.9C6.7,26.8,1.3,22.2,0.3,16
				c-0.9-5.1,0.7-9.3,4.6-12.8C5.1,3,5.1,2.8,4.9,2.6C4.8,2.3,4.7,2.1,4.5,1.8c1-0.6,2-1.2,3.1-1.8c0.2,0.3,0.4,0.6,0.5,0.8
				C8.2,1.1,8.3,1.1,8.5,1c1.6-0.6,3.3-0.9,5-0.9c6.5,0.1,11.8,4.7,13,10.7c1,5.2-0.6,9.6-4.6,13.1C21.9,23.9,21.9,24,21.7,24.1"/>
			<path class="st1" d="M89.8,27h-0.4c-1,0-2.1,0-3.1,0c-0.3,0-0.5-0.1-0.7-0.4c-1.9-3.2-3.8-6.4-5.6-9.6c-1.9-3.2-3.8-6.4-5.7-9.6
				c-0.1-0.1-0.1-0.2-0.2-0.3V27h-3.6V0.1h1.7c0.6,0,1.1,0,1.7,0c0.3,0,0.4,0.1,0.5,0.3c2.4,4.1,4.8,8.1,7.2,12.2
				c1.5,2.5,2.9,5,4.4,7.4c0.1,0.1,0.1,0.2,0.2,0.4c0-0.2,0-0.3,0-0.4c0-1.1,0-2.3,0-3.4c0-0.2-0.1-0.5-0.2-0.7
				c-3-5.1-6-10.2-9.1-15.4c-0.1-0.1-0.2-0.3-0.3-0.5c0.5,0,0.9,0,1.3,0c0.8,0,1.7,0,2.6,0c0.2,0,0.4,0.1,0.5,0.3
				c1.6,2.8,3.2,5.5,4.9,8.3C85.9,8.8,86,8.9,86.2,9V0.2h3.6L89.8,27L89.8,27z"/>
			<path class="st1" d="M151.1,3.7c0.1,0.1,0.1,0.2,0.1,0.3c1.8,3.1,3.7,6.2,5.5,9.3c0.1,0.2,0.3,0.3,0.5,0.2
				c2.4-0.7,3.9-3.2,3.5-5.7c-0.4-2.2-2.4-3.9-4.5-4c-1.6-0.1-3.3,0-4.9,0C151.2,3.7,151.2,3.7,151.1,3.7 M158.8,16.7
				c2,3.4,4.1,6.8,6.1,10.2c-0.2,0-0.3,0-0.4,0c-1.1,0-2.3,0-3.4,0c-0.3,0-0.4-0.1-0.5-0.3c-1.8-3-3.6-6-5.4-9.1
				c-0.2-0.3-0.3-0.4-0.7-0.4c-1.6,0-3.2,0-4.9,0h-0.4v9.7h-3.6V13.7h7.2c-2.7-4.6-5.4-9-8.1-13.5c0.2,0,0.3,0,0.4,0
				c3.6,0,7.2,0,10.8,0c4.3,0,7.9,3.4,8.4,7.6c0.4,3.9-1.8,7.5-5.2,8.9C159.1,16.6,159,16.7,158.8,16.7"/>
			<path class="st1" d="M143.2,27c-1.2,0-2.4,0-3.6,0c-0.1,0-0.2-0.2-0.3-0.3c-0.8-2.1-1.5-4.2-2.3-6.4c-0.6-1.6-1.1-3.1-1.7-4.7
				c0-0.1-0.1-0.2-0.2-0.4c-0.2,0.6-0.4,1.1-0.6,1.6c-1.2,3.3-2.3,6.6-3.5,9.9c-0.1,0.3-0.2,0.4-0.5,0.4c-1.1,0-2.2,0-3.4,0
				c0.1-0.2,0.1-0.5,0.2-0.7c1.9-5.4,3.8-10.8,5.7-16.1c0.1-0.3,0.1-0.5,0-0.8c-0.3-0.9-0.7-1.8-1-2.9c-0.2,0.6-0.4,1.1-0.6,1.5
				c-2.2,6.2-4.4,12.3-6.6,18.5c-0.1,0.3-0.2,0.4-0.6,0.4c-1.1,0-2.2,0-3.4,0c0.3-0.8,0.6-1.6,0.8-2.3c2.9-8,5.7-16,8.6-24.1
				c0.1-0.3,0.2-0.4,0.5-0.4c0.8,0,1.6,0,2.4,0c0.3,0,0.4,0.1,0.5,0.4c1.9,5.4,3.9,10.8,5.8,16.2c1.2,3.3,2.4,6.6,3.5,9.9
				C143.1,26.8,143.2,26.9,143.2,27"/>
			<path class="st1" d="M50.6,27V0.2h17.1v3.5H54.2v8.1h13.5v3.6c-0.2,0-0.3,0-0.5,0c-4.2,0-8.4,0-12.6,0c-0.3,0-0.5,0.2-0.5,0.5
				c0,2.4,0,4.7,0,7.1c0,0.1,0,0.3,0,0.4h13.5V27L50.6,27L50.6,27z"/>
			<path class="st1" d="M101.8,0.1h17.1v3.6h-13.5v8.1h13.5v3.6h-13c-0.3,0-0.5,0.2-0.5,0.5c0,2.4,0,4.7,0,7v0.5h13.5V27h-17.1
				C101.8,27,101.8,0.1,101.8,0.1z"/>
			<path class="st1" d="M34.8,3.7c0,0.1,0.1,0.2,0.1,0.3c1.8,3.1,3.6,6.2,5.5,9.3c0.1,0.2,0.3,0.2,0.5,0.2c2.3-0.6,3.9-3,3.7-5.3
				c-0.3-2.5-2.4-4.4-4.9-4.5c-1.5,0-3,0-4.5,0C35,3.7,34.9,3.7,34.8,3.7 M32.9,17.2V27h-3.6V13.7h7.1c-2.7-4.5-5.3-9-7.9-13.5
				c0.1,0,0.2,0,0.3,0c3.6,0,7.3,0,10.9,0c4.3,0,7.9,3.3,8.4,7.6c0.5,4.7-2.7,8.8-7.3,9.5c-0.4,0-0.7,0.1-1.1,0.1
				c-2.1,0-4.1,0-6.2,0H32.9z"/>
		</g>
	</g>
</g>
</svg>
